<svg xmlns="http://www.w3.org/2000/svg" xmlns:xlink="http://www.w3.org/1999/xlink" width="191.695" height="58.946" viewBox="0 0 191.695 58.946">
  <defs>
    <linearGradient id="linear-gradient" x1="0.852" y1="1.002" x2="0.081" y2="0.17" gradientUnits="objectBoundingBox">
      <stop offset="0" stop-color="#345c7e"/>
      <stop offset="1" stop-color="#0c355e"/>
    </linearGradient>
    <linearGradient id="linear-gradient-2" x1="1.417" y1="-0.517" x2="-0.15" y2="1.451" gradientUnits="objectBoundingBox">
      <stop offset="0" stop-color="#faa038"/>
      <stop offset="1" stop-color="#ef3628"/>
    </linearGradient>
    <linearGradient id="linear-gradient-3" x1="0.84" y1="1.044" x2="0.162" y2="0.041" xlink:href="#linear-gradient"/>
    <linearGradient id="linear-gradient-4" x1="1.255" y1="-0.021" x2="-0.109" y2="1.128" xlink:href="#linear-gradient-2"/>
    <linearGradient id="linear-gradient-5" x1="1.212" y1="1.098" x2="-0.124" y2="0.055" xlink:href="#linear-gradient"/>
    <linearGradient id="linear-gradient-6" x1="1.291" y1="0.011" x2="0.056" y2="0.952" xlink:href="#linear-gradient-2"/>
  </defs>
  <g id="Group_9629" data-name="Group 9629" transform="translate(-140 -68.004)">
    <g id="Group_1" data-name="Group 1" transform="translate(208.751 73.445)">
      <path id="Path_1" data-name="Path 1" d="M313.561,724.852v8a28.74,28.74,0,0,1-5.63.516h-1.173a4.83,4.83,0,0,1-3.179-.915,3.209,3.209,0,0,1-1.091-2.6v-.821a3.21,3.21,0,0,1,1.091-2.6,4.83,4.83,0,0,1,3.179-.915h.892a19.915,19.915,0,0,1,2.721.187v-.844a1.763,1.763,0,0,0-2.017-1.97h-4.786v-2.064a29.121,29.121,0,0,1,4.762-.352h.539Q313.561,720.465,313.561,724.852Zm-5.279,2.932h-.891q-1.713,0-1.713,1.361v.469q0,1.337,1.713,1.337h1.126a13.039,13.039,0,0,0,1.853-.094v-2.909A12.452,12.452,0,0,0,308.282,727.784Z" transform="translate(-302.488 -720.465)"/>
      <path id="Path_2" data-name="Path 2" d="M348.85,733.18h-3.191V721.1a21.407,21.407,0,0,1,5.067-.633h.751a5.247,5.247,0,0,1,2.862.633,13.072,13.072,0,0,1,3.871-.633h.728a4.708,4.708,0,0,1,3.425,1.126,4.363,4.363,0,0,1,1.15,3.261v8.328h-3.19v-8.07q0-1.971-2.252-1.971a9.615,9.615,0,0,0-2.135.235,4.163,4.163,0,0,1,.234,1.408v8.4H353V725.04a2.007,2.007,0,0,0-.446-1.443,1.857,1.857,0,0,0-1.384-.457h-.727a8.885,8.885,0,0,0-1.6.141Z" transform="translate(-331.419 -720.465)"/>
      <path id="Path_3" data-name="Path 3" d="M419.746,724.852v8a28.744,28.744,0,0,1-5.63.516h-1.173a4.832,4.832,0,0,1-3.179-.915,3.21,3.21,0,0,1-1.091-2.6v-.821a3.211,3.211,0,0,1,1.091-2.6,4.832,4.832,0,0,1,3.179-.915h.892a19.917,19.917,0,0,1,2.721.187v-.844a1.763,1.763,0,0,0-2.018-1.97h-4.786v-2.064a29.121,29.121,0,0,1,4.762-.352h.54Q419.746,720.465,419.746,724.852Zm-5.279,2.932h-.892q-1.712,0-1.713,1.361v.469q0,1.337,1.713,1.337H414.7a13.044,13.044,0,0,0,1.853-.094v-2.909A12.451,12.451,0,0,0,414.468,727.784Z" transform="translate(-373.648 -720.465)"/>
      <path id="Path_4" data-name="Path 4" d="M450.634,723.591v-2.557H460.6v2.346L454.411,731h6.381v2.557h-10.3v-2.346l6.194-7.624Z" transform="translate(-401.674 -720.846)"/>
      <path id="Path_5" data-name="Path 5" d="M488.543,728.864v-3.895q0-4.5,4.9-4.5h2.017q4.926,0,4.927,4.5v3.895q0,4.5-4.927,4.5h-2.017Q488.543,733.368,488.543,728.864Zm8.657-.094v-3.683a2.161,2.161,0,0,0-.493-1.561,2.123,2.123,0,0,0-1.572-.5H493.8a2.122,2.122,0,0,0-1.572.5,2.16,2.16,0,0,0-.492,1.561v3.683a1.762,1.762,0,0,0,2.064,2.041h1.337a2.153,2.153,0,0,0,1.572-.492A2.115,2.115,0,0,0,497.2,728.77Z" transform="translate(-427.174 -720.465)"/>
      <path id="Path_6" data-name="Path 6" d="M536.256,733.18h-3.191V721.1a24.6,24.6,0,0,1,5.724-.633h.845a4.867,4.867,0,0,1,3.5,1.126,4.311,4.311,0,0,1,1.173,3.261v8.328h-3.19v-8.023a1.794,1.794,0,0,0-2.041-2.017h-.727a15.6,15.6,0,0,0-2.088.164Z" transform="translate(-457.01 -720.465)"/>
    </g>
    <g id="Group_2" data-name="Group 2" transform="translate(208.917 88.904)">
      <path id="Path_7" data-name="Path 7" d="M307.369,780.114h.843q1.869,0,3.579.159v.98H307.46q-3.192,0-3.191,3.077v3.9q0,3.077,3.191,3.077h4.376v.98q-1.482.137-3.579.137h-.889a4.529,4.529,0,0,1-3.26-1.071,4.064,4.064,0,0,1-1.117-3.077v-3.989a4.1,4.1,0,0,1,1.117-3.089A4.5,4.5,0,0,1,307.369,780.114Z" transform="translate(-302.993 -775.897)"/>
      <path id="Path_8" data-name="Path 8" d="M349.592,784.1v4.057a4.144,4.144,0,0,1-1.117,3.1,4.439,4.439,0,0,1-3.237,1.094h-2.165a4.439,4.439,0,0,1-3.237-1.094,4.143,4.143,0,0,1-1.117-3.1V784.1a4.143,4.143,0,0,1,1.117-3.1,4.439,4.439,0,0,1,3.237-1.095h2.165A4.439,4.439,0,0,1,348.475,781,4.144,4.144,0,0,1,349.592,784.1Zm-1.277,4.011v-3.943q0-3.1-3.191-3.1h-1.937q-3.192,0-3.191,3.1v3.943q0,3.077,3.191,3.077h1.937Q348.315,791.189,348.315,788.112Z" transform="translate(-326.935 -775.758)"/>
      <path id="Path_9" data-name="Path 9" d="M383.53,792.215h-1.276v-11.83a26.491,26.491,0,0,1,5.06-.479h.775a4.532,4.532,0,0,1,3.259,1.071,4.067,4.067,0,0,1,1.117,3.077v8.16h-1.276v-8.092q0-3.054-3.191-3.054h-.934a25.651,25.651,0,0,0-3.533.251Z" transform="translate(-356.11 -775.758)"/>
      <path id="Path_10" data-name="Path 10" d="M427.112,785.287l2.781.479a4.393,4.393,0,0,1,2.393,1.037,2.847,2.847,0,0,1,.73,2.086v.57q0,2.94-3.715,2.94h-1.527q-1.869,0-3.578-.159v-.98h5.083a2.985,2.985,0,0,0,1.835-.479,1.571,1.571,0,0,0,.627-1.322v-.57a1.719,1.719,0,0,0-.513-1.322,3.286,3.286,0,0,0-1.675-.684l-2.781-.479a4.352,4.352,0,0,1-2.4-1.037,2.874,2.874,0,0,1-.718-2.086v-.273a2.723,2.723,0,0,1,.912-2.177,4.175,4.175,0,0,1,2.781-.786h1.231a31.335,31.335,0,0,1,3.579.182v.98h-4.787a2.941,2.941,0,0,0-1.812.479,1.569,1.569,0,0,0-.627,1.322v.273a1.74,1.74,0,0,0,.5,1.322A3.24,3.24,0,0,0,427.112,785.287Z" transform="translate(-383.85 -775.851)"/>
      <path id="Path_11" data-name="Path 11" d="M471.072,780.321h1.277v11.853a28.817,28.817,0,0,1-5.083.456h-.752a4.554,4.554,0,0,1-3.271-1.06,4.049,4.049,0,0,1-1.106-3.066v-8.183h1.254v8.115q0,3.055,3.214,3.054h.935a29.64,29.64,0,0,0,3.533-.228Z" transform="translate(-409.644 -776.036)"/>
      <path id="Path_12" data-name="Path 12" d="M505.257,767.33h1.277v16.457h-1.277Z" transform="translate(-438.541 -767.33)"/>
      <path id="Path_13" data-name="Path 13" d="M524.426,785.054h2.439v.98a10.714,10.714,0,0,1-1.96.159h-.684a3.645,3.645,0,0,1-2.678-.957,3.738,3.738,0,0,1-.969-2.781v-7.362h-2.325V773.93h2.325v-3.145h1.276v3.145h4.81v1.163h-4.81v7.339a2.631,2.631,0,0,0,.673,1.96A2.6,2.6,0,0,0,524.426,785.054Z" transform="translate(-447.248 -769.645)"/>
      <path id="Path_14" data-name="Path 14" d="M557.768,785.22a28.8,28.8,0,0,1,3.738.274v-1.163q0-3.077-3.214-3.077H553.78V780.3q2.484-.182,3.305-.182h1.368a4.479,4.479,0,0,1,3.237,1.06,4.076,4.076,0,0,1,1.094,3.066v7.8a26.036,26.036,0,0,1-5.015.456h-1.026a4.6,4.6,0,0,1-2.986-.844,2.923,2.923,0,0,1-1.026-2.393v-.775a2.957,2.957,0,0,1,1.026-2.4,4.556,4.556,0,0,1,2.986-.855Zm3.738,5.9V786.61a28.381,28.381,0,0,0-3.51-.228h-1.163q-2.826,0-2.826,2.166v.638q0,2.166,2.826,2.165H558A28.308,28.308,0,0,0,561.507,791.123Z" transform="translate(-470.356 -775.897)"/>
      <path id="Path_15" data-name="Path 15" d="M596.228,792.215h-1.276v-11.83a26.494,26.494,0,0,1,5.06-.479h.775a4.532,4.532,0,0,1,3.26,1.071,4.068,4.068,0,0,1,1.117,3.077v8.16h-1.276v-8.092q0-3.054-3.191-3.054h-.935a25.652,25.652,0,0,0-3.533.251Z" transform="translate(-498.651 -775.758)"/>
      <path id="Path_16" data-name="Path 16" d="M639.827,785.054h2.439v.98a10.71,10.71,0,0,1-1.96.159h-.684a3.646,3.646,0,0,1-2.678-.957,3.738,3.738,0,0,1-.969-2.781v-7.362H633.65V773.93h2.325v-3.145h1.276v3.145h4.81v1.163h-4.81v7.339a2.632,2.632,0,0,0,.673,1.96A2.6,2.6,0,0,0,639.827,785.054Z" transform="translate(-524.584 -769.645)"/>
    </g>
    <g id="Group_3" data-name="Group 3" transform="translate(223.793 109.837)" opacity="0.62">
      <path id="Path_18" data-name="Path 18" d="M352.377,838.489h.615v.755h-.708a1.477,1.477,0,0,1-1.379-.708,1.54,1.54,0,0,1-1.109.429,1.573,1.573,0,0,1-1.3-.615,2.032,2.032,0,0,1-.4-1.276,1.966,1.966,0,0,1,.55-1.454,1.532,1.532,0,0,1,1.137-.475,1.505,1.505,0,0,1,.885.261v-.4l.81-.428v2.981A.811.811,0,0,0,352.377,838.489Zm-1.714-2.217a1.1,1.1,0,0,0-.848-.382.816.816,0,0,0-.671.331,1.562,1.562,0,0,0,0,1.728.829.829,0,0,0,.68.326,1.042,1.042,0,0,0,.857-.428,2.511,2.511,0,0,1-.018-.261Zm-1.2-2.292a.461.461,0,0,1,0-.922.4.4,0,0,1,.447.457Q349.908,833.981,349.461,833.98Zm1.183,0a.461.461,0,0,1,0-.922.4.4,0,0,1,.447.457Q351.091,833.981,350.644,833.98Z" transform="translate(-348.091 -832.387)"/>
      <path id="Path_19" data-name="Path 19" d="M372.276,843.287h.615v.755h-.708a1.78,1.78,0,0,0-2.441,0h-3.857a1.755,1.755,0,0,0-2.441,0h-.708v-.755h.615a.815.815,0,0,0,.913-.932v-1.3l.8-.428v1.733q0,.783.606.9a5.517,5.517,0,0,1,1.23-2.348,2.963,2.963,0,0,1,2.236-1.034,2.124,2.124,0,0,1,1.7.736,2.29,2.29,0,0,1,.531,1.537v.224A.807.807,0,0,0,372.276,843.287Zm-2.581,0q.867,0,.867-.969v-.168a1.525,1.525,0,0,0-.447-1.155,1.352,1.352,0,0,0-.969-.372,2.324,2.324,0,0,0-1.78.913,4.8,4.8,0,0,0-.932,1.751Z" transform="translate(-358.395 -837.185)"/>
      <path id="Path_20" data-name="Path 20" d="M404.647,843.287h.615v.755h-.708a1.78,1.78,0,0,0-2.441,0h-3.857a1.754,1.754,0,0,0-2.441,0h-.708v-.755h.615a.815.815,0,0,0,.913-.932v-1.3l.8-.428v1.733q0,.783.606.9a5.518,5.518,0,0,1,1.23-2.348,2.963,2.963,0,0,1,2.236-1.034,2.125,2.125,0,0,1,1.7.736,2.292,2.292,0,0,1,.531,1.537v.224A.807.807,0,0,0,404.647,843.287Zm-2.581,0q.866,0,.866-.969v-.168a1.525,1.525,0,0,0-.447-1.155,1.353,1.353,0,0,0-.969-.372,2.323,2.323,0,0,0-1.779.913,4.8,4.8,0,0,0-.932,1.751Z" transform="translate(-381.17 -837.185)"/>
      <path id="Path_21" data-name="Path 21" d="M433.552,838.71h.606v.755h-.615a3.506,3.506,0,0,1-1.211-.172,2.177,2.177,0,0,1-.848-.61,4.822,4.822,0,0,1-2.739.783h-1.267v-.755h1.276a3.78,3.78,0,0,0,2.99-1.248,2.221,2.221,0,0,0-1.882-1.426,2.276,2.276,0,0,0-1.556.8v-.745a2.323,2.323,0,0,1,1.658-.792,2.249,2.249,0,0,1,1.388.517,4.5,4.5,0,0,1,1.183,1.477v.41a4.305,4.305,0,0,1-.55.587A2.42,2.42,0,0,0,433.552,838.71Zm-3.251-4.416a.461.461,0,0,1,0-.922.4.4,0,0,1,.447.456Q430.748,834.295,430.3,834.294Z" transform="translate(-403.945 -832.608)"/>
      <path id="Path_22" data-name="Path 22" d="M451.368,838.865h.615v.755h-.708a1.755,1.755,0,0,0-2.441,0h-.708v-.755h.615a.815.815,0,0,0,.913-.932V836l.8-.428v2.357A.815.815,0,0,0,451.368,838.865Zm-2.2-4.351a.408.408,0,0,1-.456-.466.4.4,0,0,1,.456-.456.4.4,0,0,1,.447.456Q449.617,834.514,449.169,834.514Zm1.193,0a.408.408,0,0,1-.457-.466.4.4,0,0,1,.457-.456.4.4,0,0,1,.447.456Q450.809,834.514,450.362,834.514Z" transform="translate(-418.472 -832.763)"/>
      <path id="Path_23" data-name="Path 23" d="M460.779,841.517a1.495,1.495,0,0,1,1.6-1.64,1.582,1.582,0,0,1,1.36.652,2.339,2.339,0,0,1,.41,1.435,2.24,2.24,0,0,1-.522,1.575,1.534,1.534,0,0,1-1.192.5,1.668,1.668,0,0,1-1.276-.466,1.588,1.588,0,0,1-1.2.466h-.708v-.755h.615a.815.815,0,0,0,.913-.932Zm.8.9a.758.758,0,0,0,.848.866.789.789,0,0,0,.685-.354,1.708,1.708,0,0,0,.247-.988,1.6,1.6,0,0,0-.261-.974.846.846,0,0,0-.717-.349q-.8,0-.8.931Z" transform="translate(-426.299 -837.185)"/>
      <path id="Path_24" data-name="Path 24" d="M490.691,838.489h.615v.755H490.6a1.477,1.477,0,0,1-1.379-.708,1.54,1.54,0,0,1-1.109.429,1.573,1.573,0,0,1-1.3-.615,2.032,2.032,0,0,1-.4-1.276,1.965,1.965,0,0,1,.55-1.454,1.531,1.531,0,0,1,1.137-.475,1.5,1.5,0,0,1,.885.261v-.4l.81-.428v2.981A.811.811,0,0,0,490.691,838.489Zm-1.714-2.217a1.1,1.1,0,0,0-.848-.382.817.817,0,0,0-.671.331,1.562,1.562,0,0,0,0,1.728.83.83,0,0,0,.68.326,1.042,1.042,0,0,0,.857-.428,2.533,2.533,0,0,1-.019-.261Zm-1.2-2.292a.461.461,0,0,1,0-.922.4.4,0,0,1,.447.457Q488.222,833.981,487.775,833.98Zm1.183,0a.461.461,0,0,1,0-.922.4.4,0,0,1,.447.457Q489.4,833.981,488.958,833.98Z" transform="translate(-445.403 -832.387)"/>
      <path id="Path_25" data-name="Path 25" d="M501.05,844.33v-.755h.615a.815.815,0,0,0,.913-.932v-1.929l.8-.428v2.385a1.65,1.65,0,0,1-.475,1.248,1.61,1.61,0,0,1-1.146.41Zm.494,1.854a.408.408,0,0,1-.456-.466.452.452,0,1,1,.9,0Q501.991,846.184,501.544,846.183Zm1.183,0a.408.408,0,0,1-.456-.466.4.4,0,0,1,.456-.456.4.4,0,0,1,.447.456Q503.174,846.184,502.727,846.183Z" transform="translate(-455.707 -837.472)"/>
      <path id="Path_26" data-name="Path 26" d="M514.071,843.836a2.467,2.467,0,0,1-.55,1.677,1.741,1.741,0,0,1-1.388.606,2.317,2.317,0,0,1-1.09-.279v-.7a1.964,1.964,0,0,0,.95.261,1.149,1.149,0,0,0,.932-.4,1.676,1.676,0,0,0,.335-1.109v-3.177l.811-.428Z" transform="translate(-462.738 -837.472)"/>
      <path id="Path_27" data-name="Path 27" d="M528.536,839.663a1.538,1.538,0,0,1-1.249-.522,1.715,1.715,0,0,1-.372-1.137v-3.922l.8-.429v4.323a.815.815,0,0,0,.913.932h.615v.755Z" transform="translate(-473.905 -832.807)"/>
      <path id="Path_28" data-name="Path 28" d="M532.886,837.652V836.9h.838a.811.811,0,0,0,.9-.932v-1.3l.8-.428v1.733a.815.815,0,0,0,.913.932h.429a.815.815,0,0,0,.913-.932v-1.621l.8-.419v2.04a.811.811,0,0,0,.9.932h.438a.815.815,0,0,0,.913-.932v-1.929l.8-.428v2.273q0,1.016.969,1.016h.773v.755h-.838a1.513,1.513,0,0,1-1.277-.568,1.408,1.408,0,0,1-1.22.568h-.643a1.6,1.6,0,0,0-2.413,0h-.643a1.441,1.441,0,0,1-1.22-.55,1.41,1.41,0,0,1-1.22.55Zm4.537-4.919a.461.461,0,0,1,0-.922.4.4,0,0,1,.447.457Q537.87,832.733,537.423,832.733Zm.587-1.109a.366.366,0,0,1-.41-.419.41.41,0,1,1,.82,0A.367.367,0,0,1,538.01,831.624Zm.6,1.109a.461.461,0,0,1,0-.922.4.4,0,0,1,.447.457Q539.053,832.733,538.606,832.733Z" transform="translate(-478.106 -830.795)"/>
      <path id="Path_29" data-name="Path 29" d="M569.316,838.865h.615v.755h-.708a1.755,1.755,0,0,0-2.441,0h-.708v-.755h.615a.815.815,0,0,0,.913-.932V836l.8-.428v2.357A.815.815,0,0,0,569.316,838.865Zm-2.2-4.351a.407.407,0,0,1-.457-.466.4.4,0,0,1,.457-.456.4.4,0,0,1,.447.456Q567.564,834.514,567.117,834.514Zm1.193,0a.407.407,0,0,1-.456-.466.4.4,0,0,1,.456-.456.4.4,0,0,1,.447.456Q568.757,834.514,568.31,834.514Z" transform="translate(-501.455 -832.763)"/>
      <path id="Path_30" data-name="Path 30" d="M577.2,844.33v-.755h.838a.811.811,0,0,0,.9-.932v-1.3l.8-.428v1.733a.815.815,0,0,0,.913.932h.429a.815.815,0,0,0,.913-.932v-1.621l.8-.419v2.04a.811.811,0,0,0,.9.932h.438a.815.815,0,0,0,.913-.932v-1.929l.8-.428v2.385a1.62,1.62,0,0,1-.475,1.239,1.562,1.562,0,0,1-1.118.419h-.643a1.6,1.6,0,0,0-2.413,0h-.643a1.44,1.44,0,0,1-1.22-.55,1.41,1.41,0,0,1-1.22.55Z" transform="translate(-509.283 -837.472)"/>
      <path id="Path_31" data-name="Path 31" d="M612.052,839.663v-5.581l.8-.429v6.009Z" transform="translate(-533.804 -832.807)"/>
      <path id="Path_32" data-name="Path 32" d="M629.29,841.455a1.471,1.471,0,0,1-1.183-.5,1.707,1.707,0,0,1-.373-1.146v-1.127l.8-.429v1.481q0,.969.9.969h3.093q.9,0,.9-.969V837.84l.8-.428v2.394a1.609,1.609,0,0,1-.494,1.257,1.629,1.629,0,0,1-1.127.392Zm.941-4.332a.408.408,0,0,1-.457-.466.4.4,0,0,1,.457-.456.4.4,0,0,1,.447.456Q630.678,837.123,630.231,837.122Zm1.183,0a.408.408,0,0,1-.456-.466.452.452,0,1,1,.9,0Q631.861,837.123,631.414,837.122Z" transform="translate(-544.837 -834.598)"/>
      <path id="Path_33" data-name="Path 33" d="M656.32,839.663a1.538,1.538,0,0,1-1.248-.522,1.714,1.714,0,0,1-.373-1.137v-3.922l.8-.429v4.323a.815.815,0,0,0,.913.932h.615v.755Z" transform="translate(-563.809 -832.807)"/>
      <path id="Path_34" data-name="Path 34" d="M662.2,841.517a1.5,1.5,0,0,1,1.6-1.64,1.581,1.581,0,0,1,1.36.652,2.339,2.339,0,0,1,.41,1.435,2.239,2.239,0,0,1-.522,1.575,1.534,1.534,0,0,1-1.192.5,1.668,1.668,0,0,1-1.277-.466,1.587,1.587,0,0,1-1.2.466h-.708v-.755h.615a.815.815,0,0,0,.913-.932Zm.8.9a.758.758,0,0,0,.848.866.788.788,0,0,0,.684-.354,1.708,1.708,0,0,0,.247-.988,1.6,1.6,0,0,0-.261-.974.846.846,0,0,0-.717-.349q-.8,0-.8.931Z" transform="translate(-568.01 -837.185)"/>
      <path id="Path_35" data-name="Path 35" d="M679.873,844.108l.391-.755h1.658a.648.648,0,0,0,.526-.186,1.027,1.027,0,0,0,.154-.643,2,2,0,0,0-1.146-1.863l.41-.689a2.785,2.785,0,0,1,1.528,2.366,1.158,1.158,0,0,0,.247.778.977.977,0,0,0,.731.237h.55v.755h-.615a1.534,1.534,0,0,1-1.211-.494,1.122,1.122,0,0,1-1.034.494Z" transform="translate(-581.52 -837.252)"/>
      <path id="Path_36" data-name="Path 36" d="M695.021,839.465v-.755H696.3a3.78,3.78,0,0,0,2.99-1.248,2.221,2.221,0,0,0-1.882-1.426,2.276,2.276,0,0,0-1.556.8v-.745a2.322,2.322,0,0,1,1.658-.792,2.248,2.248,0,0,1,1.388.517,4.5,4.5,0,0,1,1.183,1.477v.41a4.536,4.536,0,0,1-3.792,1.761Zm2.823-5.171a.461.461,0,0,1,0-.922.4.4,0,0,1,.447.456Q698.291,834.295,697.844,834.294Z" transform="translate(-592.178 -832.608)"/>
    </g>
    <g id="Group_3436" data-name="Group 3436">
      <g id="Group_3435" data-name="Group 3435">
        <path id="Path_37" data-name="Path 37" d="M256.4,716.426l-.05,36.217a80.954,80.954,0,0,1-11.929,2.363V703.969Z" transform="translate(-54.822 -635.965)" fill="url(#linear-gradient)"/>
        <path id="Path_38" data-name="Path 38" d="M142.256,784.534v22.291c-2.43-.665-4.673-1.4-6.693-2.139l-.023-14.148Z" transform="translate(18.144 -689.956)" fill="url(#linear-gradient-2)"/>
        <path id="Path_39" data-name="Path 39" d="M160.222,787.416V807.83l-.048-.01c-1.405-.306-2.762-.641-4.066-1V784.5l4.066,2.879Z" transform="translate(4.36 -689.935)" fill="url(#linear-gradient-3)"/>
        <path id="Path_40" data-name="Path 40" d="M177.3,749.928V786.04a75.43,75.43,0,0,1-8.818-1.381l-.048-.01V758.225Z" transform="translate(-3.901 -666.764)" fill="url(#linear-gradient-4)"/>
        <path id="Path_41" data-name="Path 41" d="M199.6,786.276q-2.181-.075-4.282-.279V749.864l4.282,3.051.221.157.03,33.212Z" transform="translate(-21.914 -666.721)" fill="url(#linear-gradient-5)"/>
        <path id="Path_42" data-name="Path 42" d="M220.242,704.177l-.031,27.033-.028,23.938a72.948,72.948,0,0,1-8.584.563c-.588,0-.913-.012-.916-.012h-.063q-1.044,0-2.073-.032l-.251-.008v-39.03l11.915-12.419Z" transform="translate(-30.614 -636.104)" fill="url(#linear-gradient-6)"/>
      </g>
      <g id="Group_4" data-name="Group 4" transform="translate(205.038 108.97)">
        <path id="Path_43" data-name="Path 43" d="M306.215,830.413a17,17,0,0,1-4.984,11.992,1.433,1.433,0,0,1-.968.444.7.7,0,0,1-.234-.034c-.474-.15-.088-.821-.088-.821a35.136,35.136,0,0,0,2.493-7.565c.352-1.847-.322-2.4-.322-2.4-.411-.5-1.877-.675-1.877-.675a16.37,16.37,0,0,0-1.955-.1,47.607,47.607,0,0,0-5.668.424,3.754,3.754,0,0,1-.633.062c-.783,0-.745-.385-.745-.385a.715.715,0,0,1,.235-.469c2.609-2.316,7.389-2.639,7.389-2.639.724-.054,1.379-.078,1.97-.078,3.888,0,5.037,1.016,5.037,1.016C306.251,829.446,306.215,830.413,306.215,830.413Z" transform="translate(-291.232 -828.166)" fill="#f3971b"/>
      </g>
      <g id="Group_5" data-name="Group 5" transform="translate(140 110.602)">
        <path id="Path_44" data-name="Path 44" d="M167.056,838.555a1.278,1.278,0,0,1-.657,1.051,44.5,44.5,0,0,1-10.827,5.781,59.692,59.692,0,0,1-11.92,3.236,63.087,63.087,0,0,1-10.214.824s-.282.014-.807.014a59.193,59.193,0,0,1-38.214-15.1s-.622-.547-.236-1.055a.611.611,0,0,1,.49-.2,1.538,1.538,0,0,1,.75.237,70.5,70.5,0,0,0,12.344,5.664c2.031.728,4.271,1.443,6.69,2.089l.068.018q.571.152,1.155.3,1.419.356,2.911.674a77.032,77.032,0,0,0,8.831,1.351l.035,0q2.1.2,4.282.271l.252.008q1.028.031,2.072.031s.343.013.979.013a74.235,74.235,0,0,0,8.582-.553l.03,0a83.074,83.074,0,0,0,11.926-2.312,72.125,72.125,0,0,0,9.372-3.244,2.3,2.3,0,0,1,.939-.231,1.12,1.12,0,0,1,.949.456A1.2,1.2,0,0,1,167.056,838.555Z" transform="translate(-94.054 -833.113)" fill="#f3971b"/>
      </g>
    </g>
  </g>
</svg>
